<svg viewBox="0 0 52 52" xml:space="preserve" xmlns="http://www.w3.org/2000/svg" enable-background="new 0 0 52 52"><path d="m5.356 4.38 34.819-.09c1.503-.005 3.258-.212 4.724.14 1.701-.326 2.721.448 3.059 2.321 1.224 1.161 1.66 2.54 1.309 4.138.264 2.554-.028 5.296-.042 7.865l-.047 8.848c-.023 4.349 1.313 8.731-4.735 10.081-2.383.532-5.502.013-7.952.018l-8.947.02c-5.336.013-10.697.177-16.029-.074-1.557-.073-3.509.081-4.962-.476-1.533.144-2.426-.647-2.68-2.374-.99-.877-1.404-1.907-1.24-3.091-.44-2.642.029-5.777.042-8.445.017-3.39-1.734-18.424 3.139-19.053 1.416-.183 1.434-2.436 0-2.25-6 .775-5.32 7.249-5.342 11.92L.406 27.014c-.013 2.588-.7 6.533.409 9.008 2.349 5.241 11.382 3.951 16.012 3.972 9.39.043 19.056.565 28.417-.082 6.198-.429 6.14-3.984 6.168-9.36l.073-13.764c.018-3.26.996-8.365-.496-11.385C48.43.221 39.813 2.04 35.2 2.053L5.356 2.13c-1.448.003-1.45 2.253 0 2.25z" fill="#28a89f" class="fill-231f20"></path><path d="m1.772 32.755 47.916.116c1.448.004 1.45-2.246 0-2.25l-47.916-.116c-1.448-.004-1.45 2.246 0 2.25zM31.236 15.686c.879.346 1.53 1.016 2.285 1.557.75.537 1.564.966 2.38 1.393v-1.943l-5.538 3.55c-1.215.779-.088 2.727 1.136 1.943l5.538-3.55c.677-.434.781-1.534 0-1.943-1.801-.942-3.322-2.436-5.203-3.177-1.348-.53-1.932 1.644-.598 2.17z" fill="#28a89f" class="fill-231f20"></path><path d="M29.415 10.472c-1.468 2.225-2.05 4.623-3.163 7-1.194 2.55-2.967 4.695-5.109 6.504-1.107.936.491 2.52 1.591 1.591 2.059-1.74 3.813-3.795 5.075-6.187 1.348-2.554 1.94-5.334 3.549-7.773.8-1.212-1.148-2.34-1.943-1.135zM19.738 13.305c-1.097.74-2.21 1.463-3.276 2.246-.772.566-2.042 1.254-1.869 2.391.15.99 1.212 1.243 2.018 1.47.681.19.996.501 1.488.987.404.399 1.022.604 1.339 1.074.803 1.195 2.753.07 1.942-1.135-.56-.833-1.424-1.367-2.148-2.04a4.356 4.356 0 0 0-1.227-.794c-.398-.173-1.197-.194-1.512-.507l.29 1.095c-.106.133-.064.11.125-.07.224-.184.453-.36.69-.528a43.68 43.68 0 0 1 1.135-.8c.71-.487 1.427-.964 2.14-1.446 1.195-.805.07-2.756-1.135-1.943zM24.522 36.434h.666c1.448 0 1.45-2.25 0-2.25h-.666c-1.448 0-1.45 2.25 0 2.25zM18.25 49.413c1.67-1.91 5.258-1.237 7.516-1.255 2.826-.022 5.777-.288 8.008 1.797 1.057.988 2.652-.6 1.591-1.591-2.726-2.548-6.06-2.485-9.599-2.456-3.006.024-6.9-.61-9.107 1.914-.95 1.086.635 2.684 1.59 1.591z" fill="#28a89f" class="fill-231f20"></path><path d="M30.397 39.725v6.917c0 1.448 2.25 1.45 2.25 0v-6.917c0-1.447-2.25-1.45-2.25 0zM20.093 39.39l.437 7.17c.088 1.44 2.338 1.45 2.25 0l-.437-7.17c-.088-1.438-2.338-1.448-2.25 0z" fill="#28a89f" class="fill-231f20"></path></svg>